<svg preserveAspectRatio="xMidYMid meet" viewBox="0 0 483 572" fill="none" xmlns="http://www.w3.org/2000/svg">
    <path fill-rule="evenodd" clip-rule="evenodd" d="M27.7119 221.03L107.839 267.234L108.25 267.788L108.536 268.528V299.718L81.9099 314.958V345.819L54.1937 361.878L26.5559 345.89V284.194L0 268.814V237.016L27.7119 221.03ZM81.9099 312.536L106.434 298.499V270.064L81.9099 284.23V312.536ZM80.8583 282.41L105.382 268.244L27.7121 223.457L3.15505 237.623L80.8583 282.41ZM2.10205 239.442L79.8079 284.231V312.525L53.1422 297.074V358.841L28.658 344.677V282.982L2.10205 267.602V239.442ZM55.2443 358.84L79.8079 344.608V314.954L55.2443 300.722V358.84Z" fill="#68888C"/>
    <path fill-rule="evenodd" clip-rule="evenodd" d="M54.3382 205.649L55.6614 206.415L54.6092 208.234L54.3377 208.077L54.0316 208.254L52.9802 206.434L54.3382 205.649ZM57.7988 210.078L56.204 209.156L57.2562 207.337L58.8509 208.259L57.7988 210.078ZM52.3675 209.215L50.7034 210.177L49.6519 208.356L51.3161 207.395L52.3675 209.215ZM60.9883 211.923L59.3935 211.001L60.4457 209.181L62.0405 210.103L60.9883 211.923ZM49.0392 211.138L47.3751 212.099L46.3237 210.279L47.9878 209.318L49.0392 211.138ZM64.1778 213.767L62.583 212.845L63.6352 211.025L65.23 211.947L64.1778 213.767ZM45.711 213.06L44.0469 214.022L42.9955 212.201L44.6596 211.24L45.711 213.06ZM67.3673 215.611L65.7725 214.689L66.8247 212.869L68.4195 213.791L67.3673 215.611ZM42.3827 214.983L40.7186 215.944L39.6672 214.124L41.3313 213.163L42.3827 214.983ZM70.5568 217.455L68.962 216.533L70.0142 214.713L71.609 215.636L70.5568 217.455ZM39.0545 216.905L37.3904 217.867L36.339 216.046L38.0031 215.085L39.0545 216.905ZM73.7463 219.299L72.1516 218.377L73.2037 216.558L74.7985 217.48L73.7463 219.299ZM35.7262 218.828L34.0621 219.789L33.0107 217.969L34.6748 217.008L35.7262 218.828ZM76.9358 221.144L75.3411 220.222L76.3933 218.402L77.988 219.324L76.9358 221.144ZM32.398 220.75L30.7339 221.712L29.6825 219.891L31.3466 218.93L32.398 220.75ZM80.1253 222.988L78.5306 222.066L79.5828 220.246L81.1775 221.168L80.1253 222.988ZM29.0698 222.673L28.2377 223.153L27.1863 221.333L28.0183 220.853L29.0698 222.673ZM83.3148 224.832L81.7201 223.91L82.7723 222.09L84.367 223.012L83.3148 224.832ZM86.5044 226.676L84.9096 225.754L85.9618 223.934L87.5565 224.856L86.5044 226.676ZM89.6939 228.52L88.0991 227.598L89.1513 225.779L90.7461 226.701L89.6939 228.52ZM92.8834 230.365L91.2886 229.443L92.3408 227.623L93.9356 228.545L92.8834 230.365ZM96.0729 232.209L94.4781 231.287L95.5303 229.467L97.1251 230.389L96.0729 232.209ZM99.2624 234.053L97.6677 233.131L98.7198 231.311L100.315 232.233L99.2624 234.053ZM102.452 235.897L100.857 234.975L101.909 233.155L103.504 234.077L102.452 235.897ZM105.641 237.741L104.047 236.819L105.099 235L106.694 235.922L105.641 237.741ZM108.831 239.586L107.236 238.664L108.288 236.844L109.883 237.766L108.831 239.586ZM112.02 241.43L110.426 240.508L111.478 238.688L113.073 239.61L112.02 241.43ZM115.21 243.274L113.615 242.352L114.667 240.532L116.262 241.454L115.21 243.274ZM118.399 245.118L116.805 244.196L117.857 242.376L119.452 243.299L118.399 245.118ZM121.589 246.962L119.994 246.04L121.046 244.221L122.641 245.143L121.589 246.962ZM124.779 248.807L123.184 247.885L124.236 246.065L125.831 246.987L124.779 248.807ZM127.968 250.651L126.373 249.729L127.425 247.909L129.02 248.831L127.968 250.651ZM131.158 252.495L129.563 251.573L130.615 249.753L132.21 250.675L131.158 252.495ZM132.752 253.417L132.991 253.005L133.532 252.069L133.805 251.597L135.127 252.362V253.93H134.513H133.523H133.025L132.752 253.417ZM132.107 255.314L130.445 256.271L129.396 254.45L131.058 253.493L132.107 255.314ZM128.783 257.228L127.121 258.185L126.073 256.363L127.735 255.407L128.783 257.228ZM135.127 255.852V257.775H133.025V255.852H135.127ZM125.46 259.142L123.798 260.099L122.749 258.277L124.411 257.32L125.46 259.142ZM122.136 261.056L120.474 262.013L119.425 260.191L121.087 259.234L122.136 261.056ZM135.127 259.697V261.62H133.025V259.697H135.127ZM118.812 262.969L117.15 263.926L116.101 262.105L117.763 261.148L118.812 262.969ZM115.488 264.883L113.826 265.84L112.777 264.018L114.439 263.061L115.488 264.883ZM135.127 263.542V265.465H133.025V263.542H135.127ZM112.164 266.797L110.502 267.754L109.453 265.932L111.115 264.975L112.164 266.797ZM108.84 268.711L108.009 269.189L106.96 267.367L107.791 266.889L108.84 268.711ZM135.127 267.387V269.31H133.025V267.387H135.127ZM135.127 271.232V273.155H133.025V271.232H135.127ZM135.127 275.077V277H133.025V275.077H135.127ZM135.127 278.922V280.845H133.025V278.922H135.127ZM135.127 282.767V284.335L133.771 285.119L132.719 283.299L133.025 283.122V282.767H135.127ZM132.109 286.08L130.447 287.041L129.395 285.222L131.057 284.26L132.109 286.08ZM128.785 288.002L127.123 288.964L126.071 287.144L127.733 286.183L128.785 288.002ZM125.461 289.925L123.799 290.886L122.747 289.067L124.409 288.105L125.461 289.925ZM122.137 291.848L120.476 292.809L119.423 290.989L121.085 290.028L122.137 291.848ZM118.814 293.77L117.152 294.731L116.099 292.912L117.761 291.95L118.814 293.77ZM115.49 295.692L113.828 296.654L112.775 294.834L114.437 293.873L115.49 295.692ZM112.166 297.615L110.504 298.576L109.451 296.757L111.113 295.795L112.166 297.615ZM108.536 301.989V303.909H106.434V301.989H108.536ZM108.536 305.829V307.75H106.434V305.829H108.536ZM108.536 309.67V311.59H106.434V309.67H108.536ZM108.536 313.511V315.431H106.434V313.511H108.536ZM108.536 317.351V319.272H106.434V317.351H108.536ZM108.536 321.192V323.112H106.434V321.192H108.536ZM108.536 325.033V326.953H106.434V325.033H108.536ZM108.536 328.873V330.44L107.178 331.224L106.127 329.404L106.434 329.227V328.873H108.536ZM105.514 332.185L103.85 333.147L102.799 331.326L104.463 330.365L105.514 332.185ZM102.186 334.108L100.522 335.069L99.4706 333.249L101.135 332.288L102.186 334.108ZM98.8578 336.03L97.1937 336.992L96.1423 335.171L97.8064 334.21L98.8578 336.03ZM95.5296 337.953L93.8655 338.914L92.814 337.094L94.4782 336.133L95.5296 337.953ZM92.2013 339.875L90.5372 340.837L89.4858 339.016L91.1499 338.055L92.2013 339.875ZM88.8731 341.798L87.209 342.759L86.1576 340.939L87.8217 339.978L88.8731 341.798ZM85.5448 343.72L83.8807 344.682L82.8293 342.861L84.4934 341.9L85.5448 343.72ZM82.2166 345.643L81.3845 346.123L80.3331 344.303L81.1652 343.823L82.2166 345.643Z" fill="#68888C"/>
    <path fill-rule="evenodd" clip-rule="evenodd" d="M201.306 118.945L281.433 165.149L281.843 165.703L282.13 166.443V197.633L255.504 212.873V243.734L227.787 259.793L200.15 243.805V182.109L173.594 166.729V134.931L201.306 118.945ZM255.504 210.451L280.028 196.414V167.979L255.504 182.145V210.451ZM254.452 180.325L278.976 166.159L201.306 121.372L176.749 135.538L254.452 180.325ZM175.696 137.357L253.402 182.146V210.44L226.736 194.989V256.756L202.252 242.592V180.897L175.696 165.517V137.357ZM228.838 256.755L253.402 242.523V212.869L228.838 198.637V256.755Z" fill="#68888C"/>
    <path fill-rule="evenodd" clip-rule="evenodd" d="M227.932 103.564L229.255 104.33L228.203 106.149L227.931 105.992L227.625 106.169L226.574 104.349L227.932 103.564ZM231.393 107.993L229.798 107.071L230.85 105.252L232.445 106.174L231.393 107.993ZM225.961 107.13L224.297 108.092L223.246 106.271L224.91 105.31L225.961 107.13ZM234.582 109.838L232.987 108.916L234.039 107.096L235.634 108.018L234.582 109.838ZM222.633 109.053L220.969 110.014L219.917 108.194L221.582 107.233L222.633 109.053ZM237.772 111.682L236.177 110.76L237.229 108.94L238.824 109.862L237.772 111.682ZM219.305 110.975L217.641 111.937L216.589 110.116L218.253 109.155L219.305 110.975ZM240.961 113.526L239.366 112.604L240.418 110.784L242.013 111.706L240.961 113.526ZM215.976 112.898L214.312 113.859L213.261 112.039L214.925 111.078L215.976 112.898ZM244.151 115.37L242.556 114.448L243.608 112.628L245.203 113.551L244.151 115.37ZM212.648 114.82L210.984 115.782L209.933 113.961L211.597 113L212.648 114.82ZM247.34 117.214L245.745 116.292L246.797 114.473L248.392 115.395L247.34 117.214ZM209.32 116.743L207.656 117.704L206.604 115.884L208.269 114.923L209.32 116.743ZM250.53 119.059L248.935 118.137L249.987 116.317L251.582 117.239L250.53 119.059ZM205.992 118.665L204.328 119.627L203.276 117.806L204.94 116.845L205.992 118.665ZM253.719 120.903L252.124 119.981L253.177 118.161L254.771 119.083L253.719 120.903ZM202.664 120.588L201.831 121.068L200.78 119.248L201.612 118.768L202.664 120.588ZM256.909 122.747L255.314 121.825L256.366 120.005L257.961 120.927L256.909 122.747ZM260.098 124.591L258.503 123.669L259.556 121.849L261.15 122.772L260.098 124.591ZM263.288 126.435L261.693 125.513L262.745 123.694L264.34 124.616L263.288 126.435ZM266.477 128.28L264.882 127.358L265.935 125.538L267.529 126.46L266.477 128.28ZM269.667 130.124L268.072 129.202L269.124 127.382L270.719 128.304L269.667 130.124ZM272.856 131.968L271.261 131.046L272.314 129.226L273.908 130.148L272.856 131.968ZM276.046 133.812L274.451 132.89L275.503 131.07L277.098 131.993L276.046 133.812ZM279.235 135.656L277.64 134.734L278.693 132.915L280.287 133.837L279.235 135.656ZM282.425 137.501L280.83 136.579L281.882 134.759L283.477 135.681L282.425 137.501ZM285.614 139.345L284.019 138.423L285.072 136.603L286.666 137.525L285.614 139.345ZM288.804 141.189L287.209 140.267L288.261 138.447L289.856 139.369L288.804 141.189ZM291.993 143.033L290.398 142.111L291.451 140.291L293.045 141.214L291.993 143.033ZM295.183 144.877L293.588 143.955L294.64 142.136L296.235 143.058L295.183 144.877ZM298.372 146.722L296.778 145.8L297.83 143.98L299.424 144.902L298.372 146.722ZM301.562 148.566L299.967 147.644L301.019 145.824L302.614 146.746L301.562 148.566ZM304.751 150.41L303.157 149.488L304.209 147.668L305.803 148.59L304.751 150.41ZM306.346 151.332L306.584 150.92L307.126 149.984L307.398 149.512L308.721 150.277V151.845H308.106H307.117H306.618L306.346 151.332ZM305.701 153.229L304.039 154.186L302.99 152.365L304.652 151.408L305.701 153.229ZM302.377 155.143L300.715 156.1L299.666 154.278L301.328 153.322L302.377 155.143ZM308.721 153.767V155.69H306.618V153.767H308.721ZM299.053 157.057L297.391 158.014L296.342 156.192L298.004 155.235L299.053 157.057ZM295.729 158.971L294.067 159.928L293.019 158.106L294.681 157.149L295.729 158.971ZM308.721 157.612V159.535H306.618V157.612H308.721ZM292.406 160.884L290.744 161.841L289.695 160.02L291.357 159.063L292.406 160.884ZM289.082 162.798L287.42 163.755L286.371 161.933L288.033 160.977L289.082 162.798ZM308.721 161.457V163.38H306.618V161.457H308.721ZM285.758 164.712L284.096 165.669L283.047 163.847L284.709 162.89L285.758 164.712ZM282.434 166.626L281.603 167.104L280.554 165.282L281.385 164.804L282.434 166.626ZM308.721 165.302V167.225H306.618V165.302H308.721ZM308.721 169.147V171.07H306.618V169.147H308.721ZM308.721 172.992V174.915H306.618V172.992H308.721ZM308.721 176.837V178.76H306.618V176.837H308.721ZM308.721 180.682V182.25L307.365 183.034L306.312 181.214L306.618 181.037V180.682H308.721ZM305.703 183.995L304.041 184.956L302.988 183.137L304.65 182.175L305.703 183.995ZM302.379 185.918L300.717 186.879L299.665 185.059L301.326 184.098L302.379 185.918ZM299.055 187.84L297.393 188.801L296.341 186.982L298.003 186.02L299.055 187.84ZM295.731 189.763L294.069 190.724L293.017 188.904L294.679 187.943L295.731 189.763ZM292.407 191.685L290.745 192.646L289.693 190.827L291.355 189.865L292.407 191.685ZM289.083 193.608L287.422 194.569L286.369 192.749L288.031 191.788L289.083 193.608ZM285.76 195.53L284.098 196.491L283.045 194.672L284.707 193.71L285.76 195.53ZM282.13 199.904V201.824H280.028V199.904H282.13ZM282.13 203.744V205.665H280.028V203.744H282.13ZM282.13 207.585V209.505H280.028V207.585H282.13ZM282.13 211.426V213.346H280.028V211.426H282.13ZM282.13 215.266V217.187H280.028V215.266H282.13ZM282.13 219.107V221.027H280.028V219.107H282.13ZM282.13 222.948V224.868H280.028V222.948H282.13ZM282.13 226.788V228.355L280.772 229.139L279.721 227.319L280.028 227.142V226.788H282.13ZM279.108 230.1L277.444 231.062L276.393 229.241L278.057 228.28L279.108 230.1ZM275.78 232.023L274.116 232.984L273.064 231.164L274.728 230.203L275.78 232.023ZM272.452 233.945L270.787 234.907L269.736 233.086L271.4 232.125L272.452 233.945ZM269.123 235.868L267.459 236.829L266.408 235.009L268.072 234.048L269.123 235.868ZM265.795 237.79L264.131 238.752L263.08 236.931L264.744 235.97L265.795 237.79ZM262.467 239.713L260.803 240.674L259.751 238.854L261.415 237.893L262.467 239.713ZM259.139 241.635L257.474 242.597L256.423 240.776L258.087 239.815L259.139 241.635ZM255.81 243.558L254.978 244.038L253.927 242.218L254.759 241.738L255.81 243.558Z" fill="#68888C"/>
    <path fill-rule="evenodd" clip-rule="evenodd" d="M374.899 15.3806L455.027 61.585L455.437 62.1387L455.723 62.8785V94.0683L429.097 109.308V140.17L401.381 156.228L373.743 140.24V78.5446L347.188 63.1646V31.3669L374.899 15.3806ZM429.097 106.886L453.621 92.8495V64.4147L429.097 78.5805V106.886ZM428.046 76.7604L452.57 62.5946L374.9 17.8072L350.343 31.9735L428.046 76.7604ZM349.29 33.7928L426.995 78.5811V106.875L400.33 91.425V153.192L375.845 139.028V77.3329L349.29 61.9529V33.7928ZM402.432 153.19L426.995 138.958V109.304L402.432 95.0724V153.19Z" fill="#68888C"/>
    <path fill-rule="evenodd" clip-rule="evenodd" d="M401.526 0L402.849 0.765092L401.797 2.58485L401.525 2.42784L401.219 2.60465L400.168 0.784438L401.526 0ZM404.986 4.42904L403.391 3.50694L404.444 1.68719L406.038 2.60929L404.986 4.42904ZM399.555 3.5659L397.891 4.52715L396.839 2.70694L398.504 1.74569L399.555 3.5659ZM408.176 6.27324L406.581 5.35114L407.633 3.53139L409.228 4.45349L408.176 6.27324ZM396.227 5.4884L394.563 6.44965L393.511 4.62944L395.175 3.66819L396.227 5.4884ZM411.365 8.11744L409.771 7.19534L410.823 5.37559L412.417 6.29769L411.365 8.11744ZM392.898 7.4109L391.234 8.37215L390.183 6.55194L391.847 5.59069L392.898 7.4109ZM414.555 9.96164L412.96 9.03954L414.012 7.21979L415.607 8.14189L414.555 9.96164ZM389.57 9.3334L387.906 10.2947L386.855 8.47444L388.519 7.51319L389.57 9.3334ZM417.744 11.8058L416.15 10.8837L417.202 9.06399L418.796 9.98609L417.744 11.8058ZM386.242 11.2559L384.578 12.2171L383.526 10.3969L385.191 9.43569L386.242 11.2559ZM420.934 13.65L419.339 12.7279L420.391 10.9082L421.986 11.8303L420.934 13.65ZM382.914 13.1784L381.25 14.1397L380.198 12.3194L381.862 11.3582L382.914 13.1784ZM424.123 15.4942L422.529 14.5721L423.581 12.7524L425.176 13.6745L424.123 15.4942ZM379.585 15.1009L377.921 16.0622L376.87 14.2419L378.534 13.2807L379.585 15.1009ZM427.313 17.3384L425.718 16.4163L426.77 14.5966L428.365 15.5187L427.313 17.3384ZM376.257 17.0234L375.425 17.504L374.374 15.6838L375.206 15.2032L376.257 17.0234ZM430.502 19.1826L428.908 18.2605L429.96 16.4408L431.555 17.3629L430.502 19.1826ZM433.692 21.0268L432.097 20.1047L433.149 18.285L434.744 19.2071L433.692 21.0268ZM436.881 22.871L435.287 21.9489L436.339 20.1292L437.934 21.0513L436.881 22.871ZM440.071 24.7152L438.476 23.7931L439.528 21.9734L441.123 22.8955L440.071 24.7152ZM443.26 26.5594L441.666 25.6373L442.718 23.8176L444.313 24.7397L443.26 26.5594ZM446.45 28.4036L444.855 27.4815L445.907 25.6618L447.502 26.5839L446.45 28.4036ZM449.639 30.2478L448.045 29.3257L449.097 27.506L450.692 28.4281L449.639 30.2478ZM452.829 32.092L451.234 31.1699L452.286 29.3502L453.881 30.2723L452.829 32.092ZM456.018 33.9362L454.424 33.0141L455.476 31.1944L457.071 32.1165L456.018 33.9362ZM459.208 35.7804L457.613 34.8583L458.665 33.0386L460.26 33.9607L459.208 35.7804ZM462.397 37.6246L460.803 36.7025L461.855 34.8828L463.45 35.8049L462.397 37.6246ZM465.587 39.4688L463.992 38.5467L465.044 36.727L466.639 37.6491L465.587 39.4688ZM468.777 41.313L467.182 40.3909L468.234 38.5712L469.829 39.4933L468.777 41.313ZM471.966 43.1572L470.371 42.2351L471.423 40.4154L473.018 41.3375L471.966 43.1572ZM475.156 45.0014L473.561 44.0793L474.613 42.2596L476.208 43.1817L475.156 45.0014ZM478.345 46.8456L476.75 45.9235L477.802 44.1038L479.397 45.0259L478.345 46.8456ZM479.94 47.7677L480.178 47.3558L480.72 46.4191L480.992 45.948L482.314 46.7125V48.2801H481.7H480.71H480.212L479.94 47.7677ZM479.295 49.665L477.633 50.6219L476.584 48.8002L478.246 47.8434L479.295 49.665ZM475.971 51.5788L474.309 52.5357L473.26 50.714L474.922 49.7571L475.971 51.5788ZM482.314 50.2026V52.1251H480.212V50.2026H482.314ZM472.647 53.4925L470.985 54.4494L469.936 52.6277L471.598 51.6708L472.647 53.4925ZM469.323 55.4063L467.661 56.3631L466.612 54.5415L468.274 53.5846L469.323 55.4063ZM482.314 54.0476V55.9701H480.212V54.0476H482.314ZM465.999 57.32L464.337 58.2769L463.289 56.4552L464.95 55.4983L465.999 57.32ZM462.675 59.2337L461.013 60.1906L459.965 58.3689L461.627 57.4121L462.675 59.2337ZM482.314 57.8926V59.8151H480.212V57.8926H482.314ZM459.352 61.1475L457.69 62.1044L456.641 60.2827L458.303 59.3258L459.352 61.1475ZM456.028 63.0612L455.197 63.5397L454.148 61.718L454.979 61.2396L456.028 63.0612ZM482.314 61.7376V63.6601H480.212V61.7376H482.314ZM482.314 65.5826V67.5051H480.212V65.5826H482.314ZM482.314 69.4276V71.3502H480.212V69.4276H482.314ZM482.314 73.2727V75.1952H480.212V73.2727H482.314ZM482.314 77.1177V78.6852L480.958 79.4693L479.906 77.6497L480.212 77.4726V77.1177H482.314ZM479.297 80.4306L477.635 81.3918L476.582 79.5722L478.244 78.611L479.297 80.4306ZM475.973 82.3531L474.311 83.3143L473.258 81.4947L474.92 80.5335L475.973 82.3531ZM472.649 84.2756L470.987 85.2368L469.934 83.4172L471.596 82.456L472.649 84.2756ZM469.325 86.1981L467.663 87.1593L466.611 85.3397L468.273 84.3785L469.325 86.1981ZM466.001 88.1206L464.339 89.0818L463.287 87.2622L464.949 86.301L466.001 88.1206ZM462.677 90.0431L461.015 91.0043L459.963 89.1847L461.625 88.2235L462.677 90.0431ZM459.353 91.9656L457.691 92.9268L456.639 91.1072L458.301 90.146L459.353 91.9656ZM455.723 96.3394V98.2597H453.621V96.3394H455.723ZM455.723 100.18V102.1H453.621V100.18H455.723ZM455.723 104.021V105.941H453.621V104.021H455.723ZM455.723 107.861V109.782H453.621V107.861H455.723ZM455.723 111.702V113.622H453.621V111.702H455.723ZM455.723 115.542V117.463H453.621V115.542H455.723ZM455.723 119.383V121.303H453.621V119.383H455.723ZM455.723 123.224V124.791L454.366 125.575L453.315 123.754L453.621 123.577V123.224H455.723ZM452.702 126.536L451.038 127.497L449.986 125.677L451.65 124.716L452.702 126.536ZM449.374 128.458L447.709 129.42L446.658 127.599L448.322 126.638L449.374 128.458ZM446.045 130.381L444.381 131.342L443.33 129.522L444.994 128.561L446.045 130.381ZM442.717 132.303L441.053 133.265L440.002 131.444L441.666 130.483L442.717 132.303ZM439.389 134.226L437.725 135.187L436.673 133.367L438.337 132.406L439.389 134.226ZM436.061 136.148L434.396 137.11L433.345 135.289L435.009 134.328L436.061 136.148ZM432.732 138.071L431.068 139.032L430.017 137.212L431.681 136.251L432.732 138.071ZM429.404 139.993L428.572 140.474L427.521 138.654L428.353 138.173L429.404 139.993Z" fill="#68888C"/>
    <path fill-rule="evenodd" clip-rule="evenodd" d="M374.899 221.03L455.027 267.234L455.437 267.788L455.723 268.528V299.718L429.097 314.958V345.819L401.381 361.878L373.743 345.89V284.194L347.188 268.814V237.016L374.899 221.03ZM429.097 312.536L453.621 298.499V270.064L429.097 284.23V312.536ZM428.046 282.41L452.57 268.244L374.9 223.457L350.343 237.623L428.046 282.41ZM349.29 239.442L426.995 284.231V312.525L400.33 297.074V358.841L375.845 344.677V282.982L349.29 267.602V239.442ZM402.432 358.84L426.995 344.608V314.954L402.432 300.722V358.84Z" fill="#68888C"/>
    <path fill-rule="evenodd" clip-rule="evenodd" d="M401.526 205.649L402.849 206.415L401.797 208.234L401.525 208.077L401.219 208.254L400.168 206.434L401.526 205.649ZM404.986 210.078L403.391 209.156L404.444 207.337L406.038 208.259L404.986 210.078ZM399.555 209.215L397.891 210.177L396.839 208.356L398.504 207.395L399.555 209.215ZM408.176 211.923L406.581 211.001L407.633 209.181L409.228 210.103L408.176 211.923ZM396.227 211.138L394.563 212.099L393.511 210.279L395.175 209.318L396.227 211.138ZM411.365 213.767L409.771 212.845L410.823 211.025L412.417 211.947L411.365 213.767ZM392.898 213.06L391.234 214.022L390.183 212.201L391.847 211.24L392.898 213.06ZM414.555 215.611L412.96 214.689L414.012 212.869L415.607 213.791L414.555 215.611ZM389.57 214.983L387.906 215.944L386.855 214.124L388.519 213.163L389.57 214.983ZM417.744 217.455L416.15 216.533L417.202 214.713L418.796 215.636L417.744 217.455ZM386.242 216.905L384.578 217.867L383.526 216.046L385.191 215.085L386.242 216.905ZM420.934 219.299L419.339 218.377L420.391 216.558L421.986 217.48L420.934 219.299ZM382.914 218.828L381.25 219.789L380.198 217.969L381.862 217.008L382.914 218.828ZM424.123 221.144L422.529 220.222L423.581 218.402L425.176 219.324L424.123 221.144ZM379.585 220.75L377.921 221.712L376.87 219.891L378.534 218.93L379.585 220.75ZM427.313 222.988L425.718 222.066L426.77 220.246L428.365 221.168L427.313 222.988ZM376.257 222.673L375.425 223.153L374.374 221.333L375.206 220.853L376.257 222.673ZM430.502 224.832L428.908 223.91L429.96 222.09L431.555 223.012L430.502 224.832ZM433.692 226.676L432.097 225.754L433.149 223.934L434.744 224.856L433.692 226.676ZM436.881 228.52L435.287 227.598L436.339 225.779L437.934 226.701L436.881 228.52ZM440.071 230.365L438.476 229.443L439.528 227.623L441.123 228.545L440.071 230.365ZM443.26 232.209L441.666 231.287L442.718 229.467L444.313 230.389L443.26 232.209ZM446.45 234.053L444.855 233.131L445.907 231.311L447.502 232.233L446.45 234.053ZM449.639 235.897L448.045 234.975L449.097 233.155L450.692 234.077L449.639 235.897ZM452.829 237.741L451.234 236.819L452.286 235L453.881 235.922L452.829 237.741ZM456.018 239.586L454.424 238.664L455.476 236.844L457.071 237.766L456.018 239.586ZM459.208 241.43L457.613 240.508L458.665 238.688L460.26 239.61L459.208 241.43ZM462.397 243.274L460.803 242.352L461.855 240.532L463.45 241.454L462.397 243.274ZM465.587 245.118L463.992 244.196L465.044 242.376L466.639 243.299L465.587 245.118ZM468.777 246.962L467.182 246.04L468.234 244.221L469.829 245.143L468.777 246.962ZM471.966 248.807L470.371 247.885L471.423 246.065L473.018 246.987L471.966 248.807ZM475.156 250.651L473.561 249.729L474.613 247.909L476.208 248.831L475.156 250.651ZM478.345 252.495L476.75 251.573L477.802 249.753L479.397 250.675L478.345 252.495ZM479.94 253.417L480.178 253.005L480.72 252.069L480.992 251.597L482.314 252.362V253.93H481.7H480.71H480.212L479.94 253.417ZM479.295 255.314L477.633 256.271L476.584 254.45L478.246 253.493L479.295 255.314ZM475.971 257.228L474.309 258.185L473.26 256.363L474.922 255.407L475.971 257.228ZM482.314 255.852V257.775H480.212V255.852H482.314ZM472.647 259.142L470.985 260.099L469.936 258.277L471.598 257.32L472.647 259.142ZM469.323 261.056L467.661 262.013L466.612 260.191L468.274 259.234L469.323 261.056ZM482.314 259.697V261.62H480.212V259.697H482.314ZM465.999 262.969L464.337 263.926L463.289 262.105L464.95 261.148L465.999 262.969ZM462.675 264.883L461.013 265.84L459.965 264.018L461.627 263.061L462.675 264.883ZM482.314 263.542V265.465H480.212V263.542H482.314ZM459.352 266.797L457.69 267.754L456.641 265.932L458.303 264.975L459.352 266.797ZM456.028 268.711L455.197 269.189L454.148 267.367L454.979 266.889L456.028 268.711ZM482.314 267.387V269.31H480.212V267.387H482.314ZM482.314 271.232V273.155H480.212V271.232H482.314ZM482.314 275.077V277H480.212V275.077H482.314ZM482.314 278.922V280.845H480.212V278.922H482.314ZM482.314 282.767V284.335L480.958 285.119L479.906 283.299L480.212 283.122V282.767H482.314ZM479.297 286.08L477.635 287.041L476.582 285.222L478.244 284.26L479.297 286.08ZM475.973 288.002L474.311 288.964L473.258 287.144L474.92 286.183L475.973 288.002ZM472.649 289.925L470.987 290.886L469.934 289.067L471.596 288.105L472.649 289.925ZM469.325 291.848L467.663 292.809L466.611 290.989L468.273 290.028L469.325 291.848ZM466.001 293.77L464.339 294.731L463.287 292.912L464.949 291.95L466.001 293.77ZM462.677 295.692L461.015 296.654L459.963 294.834L461.625 293.873L462.677 295.692ZM459.353 297.615L457.691 298.576L456.639 296.757L458.301 295.795L459.353 297.615ZM455.723 301.989V303.909H453.621V301.989H455.723ZM455.723 305.829V307.75H453.621V305.829H455.723ZM455.723 309.67V311.59H453.621V309.67H455.723ZM455.723 313.511V315.431H453.621V313.511H455.723ZM455.723 317.351V319.272H453.621V317.351H455.723ZM455.723 321.192V323.112H453.621V321.192H455.723ZM455.723 325.033V326.953H453.621V325.033H455.723ZM455.723 328.873V330.44L454.366 331.224L453.315 329.404L453.621 329.227V328.873H455.723ZM452.702 332.185L451.038 333.147L449.986 331.326L451.65 330.365L452.702 332.185ZM449.374 334.108L447.709 335.069L446.658 333.249L448.322 332.288L449.374 334.108ZM446.045 336.03L444.381 336.992L443.33 335.171L444.994 334.21L446.045 336.03ZM442.717 337.953L441.053 338.914L440.002 337.094L441.666 336.133L442.717 337.953ZM439.389 339.875L437.725 340.837L436.673 339.016L438.337 338.055L439.389 339.875ZM436.061 341.798L434.396 342.759L433.345 340.939L435.009 339.978L436.061 341.798ZM432.732 343.72L431.068 344.682L430.017 342.861L431.681 341.9L432.732 343.72ZM429.404 345.643L428.572 346.123L427.521 344.303L428.353 343.823L429.404 345.643Z" fill="#68888C"/>
    <path fill-rule="evenodd" clip-rule="evenodd" d="M201.306 329.526L281.433 375.731L281.843 376.284L282.13 377.024V408.214L255.504 423.454V454.315L227.787 470.374L200.15 454.386V392.69L173.594 377.31V345.512L201.306 329.526ZM255.504 421.032L280.028 406.995V378.56L255.504 392.726V421.032ZM254.452 390.906L278.976 376.74L201.306 331.953L176.749 346.119L254.452 390.906ZM175.696 347.938L253.402 392.727V421.021L226.736 405.571V467.337L202.252 453.173V391.479L175.696 376.099V347.938ZM228.838 467.336L253.402 453.104V423.45L228.838 409.218V467.336Z" fill="#68888C"/>
    <path fill-rule="evenodd" clip-rule="evenodd" d="M227.932 314.146L229.255 314.911L228.203 316.73L227.931 316.573L227.625 316.75L226.574 314.93L227.932 314.146ZM231.393 318.575L229.798 317.653L230.85 315.833L232.445 316.755L231.393 318.575ZM225.961 317.712L224.297 318.673L223.246 316.853L224.91 315.891L225.961 317.712ZM234.582 320.419L232.987 319.497L234.039 317.677L235.634 318.599L234.582 320.419ZM222.633 319.634L220.969 320.595L219.917 318.775L221.582 317.814L222.633 319.634ZM237.772 322.263L236.177 321.341L237.229 319.521L238.824 320.443L237.772 322.263ZM219.305 321.557L217.641 322.518L216.589 320.698L218.253 319.736L219.305 321.557ZM240.961 324.107L239.366 323.185L240.418 321.365L242.013 322.288L240.961 324.107ZM215.976 323.479L214.312 324.44L213.261 322.62L214.925 321.659L215.976 323.479ZM244.151 325.951L242.556 325.029L243.608 323.21L245.203 324.132L244.151 325.951ZM212.648 325.402L210.984 326.363L209.933 324.543L211.597 323.581L212.648 325.402ZM247.34 327.796L245.745 326.874L246.797 325.054L248.392 325.976L247.34 327.796ZM209.32 327.324L207.656 328.285L206.604 326.465L208.269 325.504L209.32 327.324ZM250.53 329.64L248.935 328.718L249.987 326.898L251.582 327.82L250.53 329.64ZM205.992 329.247L204.328 330.208L203.276 328.388L204.94 327.426L205.992 329.247ZM253.719 331.484L252.124 330.562L253.177 328.742L254.771 329.664L253.719 331.484ZM202.664 331.169L201.831 331.65L200.78 329.829L201.612 329.349L202.664 331.169ZM256.909 333.328L255.314 332.406L256.366 330.586L257.961 331.509L256.909 333.328ZM260.098 335.172L258.503 334.25L259.556 332.431L261.15 333.353L260.098 335.172ZM263.288 337.017L261.693 336.095L262.745 334.275L264.34 335.197L263.288 337.017ZM266.477 338.861L264.882 337.939L265.935 336.119L267.529 337.041L266.477 338.861ZM269.667 340.705L268.072 339.783L269.124 337.963L270.719 338.885L269.667 340.705ZM272.856 342.549L271.261 341.627L272.314 339.807L273.908 340.73L272.856 342.549ZM276.046 344.393L274.451 343.471L275.503 341.652L277.098 342.574L276.046 344.393ZM279.235 346.238L277.64 345.316L278.693 343.496L280.287 344.418L279.235 346.238ZM282.425 348.082L280.83 347.16L281.882 345.34L283.477 346.262L282.425 348.082ZM285.614 349.926L284.019 349.004L285.072 347.184L286.666 348.106L285.614 349.926ZM288.804 351.77L287.209 350.848L288.261 349.028L289.856 349.951L288.804 351.77ZM291.993 353.614L290.398 352.692L291.451 350.873L293.045 351.795L291.993 353.614ZM295.183 355.459L293.588 354.537L294.64 352.717L296.235 353.639L295.183 355.459ZM298.372 357.303L296.778 356.381L297.83 354.561L299.424 355.483L298.372 357.303ZM301.562 359.147L299.967 358.225L301.019 356.405L302.614 357.327L301.562 359.147ZM304.751 360.991L303.157 360.069L304.209 358.249L305.803 359.172L304.751 360.991ZM306.346 361.913L306.584 361.501L307.126 360.565L307.398 360.094L308.721 360.858V362.426H308.106H307.117H306.618L306.346 361.913ZM305.701 363.811L304.039 364.768L302.99 362.946L304.652 361.989L305.701 363.811ZM302.377 365.724L300.715 366.681L299.666 364.86L301.328 363.903L302.377 365.724ZM308.721 364.348V366.271H306.618V364.348H308.721ZM299.053 367.638L297.391 368.595L296.342 366.773L298.004 365.816L299.053 367.638ZM295.729 369.552L294.067 370.509L293.019 368.687L294.681 367.73L295.729 369.552ZM308.721 368.193V370.116H306.618V368.193H308.721ZM292.406 371.466L290.744 372.423L289.695 370.601L291.357 369.644L292.406 371.466ZM289.082 373.379L287.42 374.336L286.371 372.515L288.033 371.558L289.082 373.379ZM308.721 372.038V373.961H306.618V372.038H308.721ZM285.758 375.293L284.096 376.25L283.047 374.428L284.709 373.471L285.758 375.293ZM282.434 377.207L281.603 377.685L280.554 375.864L281.385 375.385L282.434 377.207ZM308.721 375.883V377.806H306.618V375.883H308.721ZM308.721 379.728V381.651H306.618V379.728H308.721ZM308.721 383.573V385.496H306.618V383.573H308.721ZM308.721 387.418V389.341H306.618V387.418H308.721ZM308.721 391.263V392.831L307.365 393.615L306.312 391.795L306.618 391.618V391.263H308.721ZM305.703 394.576L304.041 395.537L302.988 393.718L304.65 392.757L305.703 394.576ZM302.379 396.499L300.717 397.46L299.665 395.64L301.326 394.679L302.379 396.499ZM299.055 398.421L297.393 399.382L296.341 397.563L298.003 396.602L299.055 398.421ZM295.731 400.344L294.069 401.305L293.017 399.485L294.679 398.524L295.731 400.344ZM292.407 402.266L290.745 403.227L289.693 401.408L291.355 400.447L292.407 402.266ZM289.083 404.189L287.422 405.15L286.369 403.33L288.031 402.369L289.083 404.189ZM285.76 406.111L284.098 407.072L283.045 405.253L284.707 404.292L285.76 406.111ZM282.13 410.485V412.405H280.028V410.485H282.13ZM282.13 414.326V416.246H280.028V414.326H282.13ZM282.13 418.166V420.087H280.028V418.166H282.13ZM282.13 422.007V423.927H280.028V422.007H282.13ZM282.13 425.847V427.768H280.028V425.847H282.13ZM282.13 429.688V431.608H280.028V429.688H282.13ZM282.13 433.529V435.449H280.028V433.529H282.13ZM282.13 437.369V438.936L280.772 439.72L279.721 437.9L280.028 437.723V437.369H282.13ZM279.108 440.681L277.444 441.643L276.393 439.823L278.057 438.861L279.108 440.681ZM275.78 442.604L274.116 443.565L273.064 441.745L274.728 440.784L275.78 442.604ZM272.452 444.526L270.787 445.488L269.736 443.668L271.4 442.706L272.452 444.526ZM269.123 446.449L267.459 447.41L266.408 445.59L268.072 444.629L269.123 446.449ZM265.795 448.371L264.131 449.333L263.08 447.513L264.744 446.551L265.795 448.371ZM262.467 450.294L260.803 451.255L259.751 449.435L261.415 448.474L262.467 450.294ZM259.139 452.216L257.474 453.178L256.423 451.358L258.087 450.396L259.139 452.216ZM255.81 454.139L254.978 454.62L253.927 452.799L254.759 452.319L255.81 454.139Z" fill="#68888C"/>
    <path fill-rule="evenodd" clip-rule="evenodd" d="M374.899 431.118L455.027 477.322L455.437 477.876L455.723 478.616V509.806L429.097 525.046V555.907L401.381 571.966L373.743 555.978V494.282L347.188 478.902V447.104L374.899 431.118ZM429.097 522.624L453.621 508.587V480.152L429.097 494.318V522.624ZM428.046 492.498L452.57 478.332L374.9 433.545L350.343 447.711L428.046 492.498ZM349.29 449.53L426.995 494.319V522.613L400.33 507.162V568.929L375.845 554.765V493.07L349.29 477.69V449.53ZM402.432 568.928L426.995 554.696V525.042L402.432 510.81V568.928Z" fill="#68888C"/>
    <path fill-rule="evenodd" clip-rule="evenodd" d="M401.526 415.737L402.849 416.503L401.797 418.322L401.525 418.165L401.219 418.342L400.168 416.522L401.526 415.737ZM404.986 420.166L403.391 419.244L404.444 417.425L406.038 418.347L404.986 420.166ZM399.555 419.303L397.891 420.265L396.839 418.444L398.504 417.483L399.555 419.303ZM408.176 422.011L406.581 421.089L407.633 419.269L409.228 420.191L408.176 422.011ZM396.227 421.226L394.563 422.187L393.511 420.367L395.175 419.406L396.227 421.226ZM411.365 423.855L409.771 422.933L410.823 421.113L412.417 422.035L411.365 423.855ZM392.898 423.148L391.234 424.11L390.183 422.289L391.847 421.328L392.898 423.148ZM414.555 425.699L412.96 424.777L414.012 422.957L415.607 423.879L414.555 425.699ZM389.57 425.071L387.906 426.032L386.855 424.212L388.519 423.251L389.57 425.071ZM417.744 427.543L416.15 426.621L417.202 424.801L418.796 425.724L417.744 427.543ZM386.242 426.993L384.578 427.955L383.526 426.134L385.191 425.173L386.242 426.993ZM420.934 429.387L419.339 428.465L420.391 426.646L421.986 427.568L420.934 429.387ZM382.914 428.916L381.25 429.877L380.198 428.057L381.862 427.096L382.914 428.916ZM424.123 431.232L422.529 430.31L423.581 428.49L425.176 429.412L424.123 431.232ZM379.585 430.838L377.921 431.8L376.87 429.979L378.534 429.018L379.585 430.838ZM427.313 433.076L425.718 432.154L426.77 430.334L428.365 431.256L427.313 433.076ZM376.257 432.761L375.425 433.241L374.374 431.421L375.206 430.941L376.257 432.761ZM430.502 434.92L428.908 433.998L429.96 432.178L431.555 433.1L430.502 434.92ZM433.692 436.764L432.097 435.842L433.149 434.022L434.744 434.945L433.692 436.764ZM436.881 438.608L435.287 437.686L436.339 435.867L437.934 436.789L436.881 438.608ZM440.071 440.453L438.476 439.531L439.528 437.711L441.123 438.633L440.071 440.453ZM443.26 442.297L441.666 441.375L442.718 439.555L444.313 440.477L443.26 442.297ZM446.45 444.141L444.855 443.219L445.907 441.399L447.502 442.321L446.45 444.141ZM449.639 445.985L448.045 445.063L449.097 443.243L450.692 444.166L449.639 445.985ZM452.829 447.829L451.234 446.907L452.286 445.088L453.881 446.01L452.829 447.829ZM456.018 449.674L454.424 448.752L455.476 446.932L457.071 447.854L456.018 449.674ZM459.208 451.518L457.613 450.596L458.665 448.776L460.26 449.698L459.208 451.518ZM462.397 453.362L460.803 452.44L461.855 450.62L463.45 451.542L462.397 453.362ZM465.587 455.206L463.992 454.284L465.044 452.464L466.639 453.387L465.587 455.206ZM468.777 457.05L467.182 456.128L468.234 454.309L469.829 455.231L468.777 457.05ZM471.966 458.895L470.371 457.973L471.423 456.153L473.018 457.075L471.966 458.895ZM475.156 460.739L473.561 459.817L474.613 457.997L476.208 458.919L475.156 460.739ZM478.345 462.583L476.75 461.661L477.802 459.841L479.397 460.763L478.345 462.583ZM479.94 463.505L480.178 463.093L480.72 462.157L480.992 461.685L482.314 462.45V464.018H481.7H480.71H480.212L479.94 463.505ZM479.295 465.402L477.633 466.359L476.584 464.538L478.246 463.581L479.295 465.402ZM475.971 467.316L474.309 468.273L473.26 466.451L474.922 465.495L475.971 467.316ZM482.314 465.94V467.863H480.212V465.94H482.314ZM472.647 469.23L470.985 470.187L469.936 468.365L471.598 467.408L472.647 469.23ZM469.323 471.144L467.661 472.101L466.612 470.279L468.274 469.322L469.323 471.144ZM482.314 469.785V471.708H480.212V469.785H482.314ZM465.999 473.057L464.337 474.014L463.289 472.193L464.95 471.236L465.999 473.057ZM462.675 474.971L461.013 475.928L459.965 474.106L461.627 473.149L462.675 474.971ZM482.314 473.63V475.553H480.212V473.63H482.314ZM459.352 476.885L457.69 477.842L456.641 476.02L458.303 475.063L459.352 476.885ZM456.028 478.799L455.197 479.277L454.148 477.455L454.979 476.977L456.028 478.799ZM482.314 477.475V479.398H480.212V477.475H482.314ZM482.314 481.32V483.243H480.212V481.32H482.314ZM482.314 485.165V487.088H480.212V485.165H482.314ZM482.314 489.01V490.933H480.212V489.01H482.314ZM482.314 492.855V494.423L480.958 495.207L479.906 493.387L480.212 493.21V492.855H482.314ZM479.297 496.168L477.635 497.129L476.582 495.31L478.244 494.348L479.297 496.168ZM475.973 498.091L474.311 499.052L473.258 497.232L474.92 496.271L475.973 498.091ZM472.649 500.013L470.987 500.974L469.934 499.155L471.596 498.193L472.649 500.013ZM469.325 501.936L467.663 502.897L466.611 501.077L468.273 500.116L469.325 501.936ZM466.001 503.858L464.339 504.819L463.287 503L464.949 502.038L466.001 503.858ZM462.677 505.781L461.015 506.742L459.963 504.922L461.625 503.961L462.677 505.781ZM459.353 507.703L457.691 508.664L456.639 506.845L458.301 505.883L459.353 507.703ZM455.723 512.077V513.997H453.621V512.077H455.723ZM455.723 515.917V517.838H453.621V515.917H455.723ZM455.723 519.758V521.678H453.621V519.758H455.723ZM455.723 523.599V525.519H453.621V523.599H455.723ZM455.723 527.439V529.36H453.621V527.439H455.723ZM455.723 531.28V533.2H453.621V531.28H455.723ZM455.723 535.121V537.041H453.621V535.121H455.723ZM455.723 538.961V540.528L454.366 541.312L453.315 539.492L453.621 539.315V538.961H455.723ZM452.702 542.273L451.038 543.235L449.986 541.414L451.65 540.453L452.702 542.273ZM449.374 544.196L447.709 545.157L446.658 543.337L448.322 542.376L449.374 544.196ZM446.045 546.118L444.381 547.08L443.33 545.259L444.994 544.298L446.045 546.118ZM442.717 548.041L441.053 549.002L440.002 547.182L441.666 546.221L442.717 548.041ZM439.389 549.963L437.725 550.925L436.673 549.104L438.337 548.143L439.389 549.963ZM436.061 551.886L434.396 552.847L433.345 551.027L435.009 550.066L436.061 551.886ZM432.732 553.808L431.068 554.77L430.017 552.949L431.681 551.988L432.732 553.808ZM429.404 555.731L428.572 556.211L427.521 554.391L428.353 553.911L429.404 555.731Z" fill="#68888C"/>
</svg>
