<svg xmlns="http://www.w3.org/2000/svg" width="136" height="157" viewBox="0 0 136 157" fill="none">
    <path fill-rule="evenodd" clip-rule="evenodd" d="M28.3057 15.9451L108.433 62.1494L108.843 62.7032L109.13 63.4429V94.6328L82.5037 109.873V140.734L54.7875 156.793L27.1497 140.805V79.1091L0.593811 63.7291V31.9313L28.3057 15.9451ZM82.5037 107.451L107.028 93.4139V64.9791L82.5037 79.1449V107.451ZM81.4521 77.3248L105.976 63.159L28.306 18.3717L3.74886 32.538L81.4521 77.3248ZM2.69586 34.3573L80.4017 79.1456V107.44L53.736 91.9895V153.756L29.2518 139.592V77.8974L2.69586 62.5173V34.3573ZM55.8381 153.755L80.4017 139.523V109.869L55.8381 95.6368V153.755Z" fill="#68888C"/>
    <path fill-rule="evenodd" clip-rule="evenodd" d="M54.9322 0.564453L56.2554 1.32954L55.2032 3.1493L54.9316 2.99229L54.6255 3.1691L53.5741 1.34889L54.9322 0.564453ZM58.3927 4.9935L56.7979 4.0714L57.8501 2.25164L59.4449 3.17374L58.3927 4.9935ZM52.9614 4.13035L51.2973 5.0916L50.2459 3.27139L51.91 2.31014L52.9614 4.13035ZM61.5822 6.8377L59.9874 5.9156L61.0396 4.09584L62.6344 5.01794L61.5822 6.8377ZM49.6332 6.05285L47.969 7.0141L46.9176 5.19389L48.5818 4.23264L49.6332 6.05285ZM64.7717 8.6819L63.177 7.7598L64.2291 5.94004L65.8239 6.86214L64.7717 8.6819ZM46.3049 7.97535L44.6408 8.9366L43.5894 7.11639L45.2535 6.15514L46.3049 7.97535ZM67.9612 10.5261L66.3665 9.60399L67.4187 7.78424L69.0134 8.70634L67.9612 10.5261ZM42.9767 9.89785L41.3125 10.8591L40.2611 9.0389L41.9253 8.07765L42.9767 9.89785ZM71.1507 12.3703L69.556 11.4482L70.6082 9.62844L72.2029 10.5505L71.1507 12.3703ZM39.6484 11.8204L37.9843 12.7816L36.9329 10.9614L38.597 10.0001L39.6484 11.8204ZM74.3402 14.2145L72.7455 13.2924L73.7977 11.4726L75.3924 12.3947L74.3402 14.2145ZM36.3202 13.7429L34.6561 14.7041L33.6046 12.8839L35.2688 11.9226L36.3202 13.7429ZM77.5297 16.0587L75.935 15.1366L76.9872 13.3168L78.5819 14.2389L77.5297 16.0587ZM32.9919 15.6654L31.3278 16.6266L30.2764 14.8064L31.9405 13.8451L32.9919 15.6654ZM80.7193 17.9029L79.1245 16.9808L80.1767 15.161L81.7715 16.0831L80.7193 17.9029ZM29.6637 17.5879L28.8316 18.0685L27.7802 16.2483L28.6123 15.7676L29.6637 17.5879ZM83.9088 19.7471L82.314 18.825L83.3662 17.0052L84.961 17.9273L83.9088 19.7471ZM87.0983 21.5913L85.5035 20.6692L86.5557 18.8494L88.1505 19.7715L87.0983 21.5913ZM90.2878 23.4355L88.693 22.5134L89.7452 20.6936L91.34 21.6157L90.2878 23.4355ZM93.4773 25.2797L91.8826 24.3576L92.9348 22.5378L94.5295 23.4599L93.4773 25.2797ZM96.6668 27.1239L95.0721 26.2018L96.1243 24.382L97.719 25.3041L96.6668 27.1239ZM99.8563 28.9681L98.2616 28.046L99.3138 26.2262L100.909 27.1483L99.8563 28.9681ZM103.046 30.8123L101.451 29.8902L102.503 28.0704L104.098 28.9925L103.046 30.8123ZM106.235 32.6565L104.641 31.7344L105.693 29.9146L107.288 30.8367L106.235 32.6565ZM109.425 34.5007L107.83 33.5786L108.882 31.7588L110.477 32.6809L109.425 34.5007ZM112.614 36.3449L111.02 35.4228L112.072 33.603L113.667 34.5251L112.614 36.3449ZM115.804 38.1891L114.209 37.267L115.261 35.4472L116.856 36.3693L115.804 38.1891ZM118.993 40.0333L117.399 39.1112L118.451 37.2914L120.046 38.2135L118.993 40.0333ZM122.183 41.8775L120.588 40.9554L121.64 39.1356L123.235 40.0577L122.183 41.8775ZM125.372 43.7217L123.778 42.7996L124.83 40.9798L126.425 41.9019L125.372 43.7217ZM128.562 45.5659L126.967 44.6438L128.019 42.824L129.614 43.7461L128.562 45.5659ZM131.751 47.4101L130.157 46.488L131.209 44.6682L132.804 45.5903L131.751 47.4101ZM133.346 48.3322L133.584 47.9202L134.126 46.9836L134.398 46.5124L135.721 47.277V48.8446H135.107H134.117H133.619L133.346 48.3322ZM132.701 50.2295L131.039 51.1864L129.99 49.3647L131.652 48.4078L132.701 50.2295ZM129.377 52.1432L127.715 53.1001L126.667 51.2784L128.328 50.3216L129.377 52.1432ZM135.721 50.7671V52.6896H133.619V50.7671H135.721ZM126.053 54.057L124.392 55.0139L123.343 53.1922L125.005 52.2353L126.053 54.057ZM122.73 55.9707L121.068 56.9276L120.019 55.1059L121.681 54.149L122.73 55.9707ZM135.721 54.6121V56.5346H133.619V54.6121H135.721ZM119.406 57.8845L117.744 58.8413L116.695 57.0197L118.357 56.0628L119.406 57.8845ZM116.082 59.7982L114.42 60.7551L113.371 58.9334L115.033 57.9765L116.082 59.7982ZM135.721 58.4571V60.3796H133.619V58.4571H135.721ZM112.758 61.7119L111.096 62.6688L110.047 60.8471L111.709 59.8903L112.758 61.7119ZM109.434 63.6257L108.603 64.1041L107.554 62.2824L108.385 61.804L109.434 63.6257ZM135.721 62.3021V64.2246H133.619V62.3021H135.721ZM135.721 66.1471V68.0696H133.619V66.1471H135.721ZM135.721 69.9921V71.9146H133.619V69.9921H135.721ZM135.721 73.8371V75.7596H133.619V73.8371H135.721ZM135.721 77.6821V79.2496L134.365 80.0338L133.312 78.2142L133.619 78.0371V77.6821H135.721ZM132.703 80.995L131.041 81.9563L129.989 80.1367L131.651 79.1754L132.703 80.995ZM129.379 82.9175L127.717 83.8788L126.665 82.0592L128.327 81.0979L129.379 82.9175ZM126.055 84.84L124.393 85.8013L123.341 83.9817L125.003 83.0204L126.055 84.84ZM122.731 86.7625L121.069 87.7238L120.017 85.9042L121.679 84.9429L122.731 86.7625ZM119.408 88.685L117.746 89.6463L116.693 87.8267L118.355 86.8654L119.408 88.685ZM116.084 90.6075L114.422 91.5688L113.369 89.7492L115.031 88.7879L116.084 90.6075ZM112.76 92.53L111.098 93.4913L110.045 91.6717L111.707 90.7104L112.76 92.53ZM109.13 96.9038V98.8241H107.028V96.9038H109.13ZM109.13 100.744V102.665H107.028V100.744H109.13ZM109.13 104.585V106.505H107.028V104.585H109.13ZM109.13 108.426V110.346H107.028V108.426H109.13ZM109.13 112.266V114.187H107.028V112.266H109.13ZM109.13 116.107V118.027H107.028V116.107H109.13ZM109.13 119.948V121.868H107.028V119.948H109.13ZM109.13 123.788V125.355L107.772 126.139L106.721 124.319L107.028 124.142V123.788H109.13ZM106.108 127.1L104.444 128.062L103.393 126.241L105.057 125.28L106.108 127.1ZM102.78 129.023L101.116 129.984L100.064 128.164L101.729 127.203L102.78 129.023ZM99.4518 130.945L97.7876 131.907L96.7362 130.086L98.4004 129.125L99.4518 130.945ZM96.1235 132.868L94.4594 133.829L93.408 132.009L95.0721 131.048L96.1235 132.868ZM92.7953 134.79L91.1311 135.752L90.0797 133.931L91.7439 132.97L92.7953 134.79ZM89.467 136.713L87.8029 137.674L86.7515 135.854L88.4156 134.893L89.467 136.713ZM86.1388 138.635L84.4747 139.597L83.4232 137.776L85.0874 136.815L86.1388 138.635ZM82.8105 140.558L81.9785 141.038L80.9271 139.218L81.7591 138.738L82.8105 140.558Z" fill="#68888C"/>
</svg>